<svg xmlns="http://www.w3.org/2000/svg" viewBox="0 0 100 100" width="100%" height="100%">
  <defs>
    <linearGradient id="bgGrad" x1="0%" y1="0%" x2="100%" y2="100%">
      <stop offset="0%" stop-color="#3b82f6" />
      <stop offset="100%" stop-color="#2563eb" />
    </linearGradient>
  </defs>

  <rect width="100" height="100" rx="28" fill="url(#bgGrad)" />

  <g transform="translate(18, 18) scale(2)">
    <path d="M 21 11 C 21 8.239 18.761 6 16 6 C 13.239 6 11 8.239 11 11 C 11 15 21 17 21 21 C 21 23.761 18.761 26 16 26 C 13.239 26 11 23.761 11 21"
          stroke="white" stroke-width="2.5" stroke-linecap="round" fill="none" />
    <path d="M24 2L24.5 5.5L28 6L24.5 6.5L24 10L23.5 6.5L20 6L23.5 5.5Z" fill="white" />
    <path d="M8 23L8.4 25.6L11 26L8.4 26.4L8 29L7.6 26.4L5 26L7.6 25.6Z" fill="white" opacity="0.8" />
    <path d="M8 6.5L8.2 7.8L9.5 8L8.2 8.2L8 9.5L7.8 8.2L6.5 8L7.8 7.8Z" fill="white" opacity="0.6" />
  </g>
</svg>
